<?xml version="1.0" encoding="utf-8"?>
<!-- Generator: Adobe Illustrator 24.0.0, SVG Export Plug-In . SVG Version: 6.00 Build 0)  -->
<svg version="1.1" id="图层_1" xmlns="http://www.w3.org/2000/svg" xmlns:xlink="http://www.w3.org/1999/xlink" x="0px" y="0px"
	 viewBox="0 0 50 50" style="enable-background:new 0 0 50 50;" xml:space="preserve">
<style type="text/css">
	.st0{fill:#F70808;}
</style>
<path d="M36.6,11.7c-3.3-2-5.8-4.9-5.8-4.9C22.9-1,17.6,6.1,17.6,6.1l-0.3,27c-0.5-0.1-3.9-5.9-4.4-5.9c-3.1,0.2-5.7,4.1-5.7,9.6
	s3.5,10,7.9,10s7.9-4.5,7.9-10c0-0.6,0-1.2-0.1-1.8l0,0L21.3,8.9c9,17.5,21.5,7.3,21.5,5.6C42.9,13.9,39.2,13.3,36.6,11.7z"/>
<rect x="22.2" y="-2.5" transform="matrix(0.538 -0.843 0.843 0.538 -9.8544 31.9625)" class="st0" width="4.1" height="54.8"/>
</svg>
